<svg xmlns="http://www.w3.org/2000/svg" viewBox="0 0 32 32" fill="none">
  <!-- App tile -->
  <rect width="32" height="32" rx="8" fill="#111214"/>

  <!-- Basketball (back left) -->
  <g transform="translate(4.2 5.2)">
    <circle cx="9" cy="9" r="8.2" fill="#f97316" stroke="#0c0d0f" stroke-width="1.4"/>
    <path d="M9 1.1 V16.9 M1.1 9 H16.9" stroke="#0c0d0f" stroke-width="1.15" stroke-linecap="round"/>
    <path d="M3.2 3.4 C5.6 5.6 5.6 12.4 3.2 14.6" stroke="#0c0d0f" stroke-width="1.15" fill="none" stroke-linecap="round"/>
    <path d="M14.8 3.4 C12.4 5.6 12.4 12.4 14.8 14.6" stroke="#0c0d0f" stroke-width="1.15" fill="none" stroke-linecap="round"/>
  </g>

  <!-- Soccer ball (front right) -->
  <g transform="translate(12.4 7.4)">
    <circle cx="9" cy="9" r="8.2" fill="#f2f3f5" stroke="#0c0d0f" stroke-width="1.4"/>
    <path d="M9 4.4 L11.6 6.2 L10.7 9.2 L7.3 9.2 L6.4 6.2 Z" fill="#2b2d31" stroke="#0c0d0f" stroke-width="0.6" stroke-linejoin="round"/>
    <path d="M9 4.4 L11.6 6.2 L13.4 3.6 C11.9 2.7 10.4 2.3 9 2.3 Z" fill="#2b2d31"/>
    <path d="M11.6 6.2 L10.7 9.2 L13.8 10.2 L14.8 7 C14.1 6.4 12.9 6.1 11.6 6.2 Z" fill="#2b2d31" opacity="0.95"/>
    <path d="M10.7 9.2 L7.3 9.2 L6.4 12.3 L9 14 L11.6 12.3 Z" fill="#2b2d31"/>
    <path d="M7.3 9.2 L6.4 6.2 L3.4 7 C2.9 8.1 2.9 9.4 3.4 10.5 L6.4 12.3 Z" fill="#2b2d31" opacity="0.95"/>
    <path d="M6.4 6.2 L9 4.4 L7.8 2.4 C6.2 2.9 4.7 3.8 3.7 5.1 Z" fill="#2b2d31"/>
  </g>

  <!-- Baseball (bottom front) -->
  <g transform="translate(7.6 14.2)">
    <circle cx="8.2" cy="8.2" r="7.4" fill="#f8fafc" stroke="#0c0d0f" stroke-width="1.35"/>
    <path d="M3.1 4.2 C5.8 6.6 5.8 11.2 3.1 13.5" stroke="#ed4245" stroke-width="1.05" fill="none" stroke-linecap="round"/>
    <path d="M13.3 4.2 C10.6 6.6 10.6 11.2 13.3 13.5" stroke="#ed4245" stroke-width="1.05" fill="none" stroke-linecap="round"/>
    <path d="M3.9 5.4 L4.7 6.1 M4.2 7.2 L5.1 7.7 M4.2 9.2 L5.1 8.7 M3.9 11 L4.7 10.3" stroke="#ed4245" stroke-width="0.7" stroke-linecap="round"/>
    <path d="M12.5 5.4 L11.7 6.1 M12.2 7.2 L11.3 7.7 M12.2 9.2 L11.3 8.7 M12.5 11 L11.7 10.3" stroke="#ed4245" stroke-width="0.7" stroke-linecap="round"/>
  </g>
</svg>
